999
dxfrw 0.5.10
0
SECTION
2
HEADER
9
$ACADVER
1
AC1021
9
$HANDSEED
5
20000
9
$DWGCODEPAGE
3
ANSI_1252
9
$INSBASE
10
0
20
0
30
0
9
$EXTMIN
10
-1.11929
20
0.581889
30
0
9
$EXTMAX
10
13.1792923464
20
10.9862233539
30
0
9
$LIMMIN
10
0
20
0
9
$LIMMAX
10
420
20
297
9
$ORTHOMODE
70
0
9
$LTSCALE
40
1
9
$TEXTSTYLE
7
STANDARD
9
$CLAYER
8
scratch
9
$DIMASZ
40
0.1
9
$DIMLFAC
40
1
9
$DIMSCALE
40
1
9
$DIMEXO
40
0.025
9
$DIMEXE
40
0.05
9
$DIMTXT
40
0.1
9
$DIMTSZ
40
0
9
$DIMAUNIT
70
0
9
$DIMADEC
70
0
9
$DIMLUNIT
70
2
9
$DIMSTYLE
2
STANDARD
9
$DIMGAP
40
0.025
9
$DIMTIH
70
0
9
$LUNITS
70
2
9
$LUPREC
70
4
9
$AUNITS
70
0
9
$AUPREC
70
2
9
$SPLINESEGS
70
8
9
$GRIDMODE
70
1
9
$SNAPSTYLE
70
0
9
$PINSBASE
10
0
20
0
30
0
9
$PLIMMIN
10
0
20
0
9
$PLIMMAX
10
3.07881102362e-08
20
4.35433070866e-08
9
$INSUNITS
70
1
9
$PSVPSCALE
40
1
0
ENDSEC
0
SECTION
2
CLASSES
0
ENDSEC
0
SECTION
2
TABLES
0
TABLE
2
VPORT
5
8
330
0
100
AcDbSymbolTable
70
1
0
VPORT
5
31
330
2
100
AcDbSymbolTableRecord
100
AcDbViewportTableRecord
2
*ACTIVE
70
0
10
0
20
0
11
1
21
1
12
9.74396401191
22
5.92038319711
13
0
23
0
14
10
24
10
15
10
25
10
16
0
26
0
36
1
17
0
27
0
37
0
40
14.8768603415
41
1.7806122449
42
50
43
0
44
0
50
0
51
0
71
0
72
100
73
1
74
3
75
0
76
1
77
0
78
0
281
0
65
1
110
0
120
0
130
0
111
1
121
0
131
0
112
0
122
1
132
0
79
0
146
0
348
10020
60
7
61
5
292
1
282
1
141
0
142
0
63
250
421
3358443
0
ENDTAB
0
TABLE
2
LTYPE
5
5
330
0
100
AcDbSymbolTable
70
4
0
LTYPE
5
14
330
5
100
AcDbSymbolTableRecord
100
AcDbLinetypeTableRecord
2
ByBlock
70
0
3

72
65
73
0
40
0
0
LTYPE
5
15
330
5
100
AcDbSymbolTableRecord
100
AcDbLinetypeTableRecord
2
ByLayer
70
0
3

72
65
73
0
40
0
0
LTYPE
5
16
330
5
100
AcDbSymbolTableRecord
100
AcDbLinetypeTableRecord
2
Continuous
70
0
3
Solid line
72
65
73
0
40
0
0
LTYPE
5
32
330
5
100
AcDbSymbolTableRecord
100
AcDbLinetypeTableRecord
2
DOT
70
0
3
Dot . . . . . . . . . . . . . . . . . . . . . .
72
65
73
2
40
6.35
49
0
74
0
49
-6.35
74
0
0
LTYPE
5
33
330
5
100
AcDbSymbolTableRecord
100
AcDbLinetypeTableRecord
2
DOT2
70
0
3
Dot (.5x) .....................................
72
65
73
2
40
3.175
49
0
74
0
49
-3.175
74
0
0
LTYPE
5
34
330
5
100
AcDbSymbolTableRecord
100
AcDbLinetypeTableRecord
2
DOTX2
70
0
3
Dot (2x) .  .  .  .  .  .  .  .  .  .  .  .  .
72
65
73
2
40
12.7
49
0
74
0
49
-12.7
74
0
0
LTYPE
5
35
330
5
100
AcDbSymbolTableRecord
100
AcDbLinetypeTableRecord
2
DASHED
70
0
3
Dot . . . . . . . . . . . . . . . . . . . . . .
72
65
73
2
40
19.05
49
12.7
74
0
49
-6.35
74
0
0
LTYPE
5
36
330
5
100
AcDbSymbolTableRecord
100
AcDbLinetypeTableRecord
2
DASHED2
70
0
3
Dashed (.5x) _ _ _ _ _ _ _ _ _ _ _ _ _ _ _ _ _
72
65
73
2
40
9.525
49
6.35
74
0
49
-3.175
74
0
0
LTYPE
5
37
330
5
100
AcDbSymbolTableRecord
100
AcDbLinetypeTableRecord
2
DASHEDX2
70
0
3
Dashed (2x) ____  ____  ____  ____  ____  ___
72
65
73
2
40
38.1
49
25.4
74
0
49
-12.7
74
0
0
LTYPE
5
38
330
5
100
AcDbSymbolTableRecord
100
AcDbLinetypeTableRecord
2
DASHDOT
70
0
3
Dash dot __ . __ . __ . __ . __ . __ . __ . __
72
65
73
4
40
25.4
49
12.7
74
0
49
-6.35
74
0
49
0
74
0
49
-6.35
74
0
0
LTYPE
5
39
330
5
100
AcDbSymbolTableRecord
100
AcDbLinetypeTableRecord
2
DASHDOT2
70
0
3
Dash dot (.5x) _._._._._._._._._._._._._._._.
72
65
73
4
40
12.7
49
6.35
74
0
49
-3.175
74
0
49
0
74
0
49
-3.175
74
0
0
LTYPE
5
3A
330
5
100
AcDbSymbolTableRecord
100
AcDbLinetypeTableRecord
2
DASHDOTX2
70
0
3
Dash dot (2x) ____  .  ____  .  ____  .  ___
72
65
73
4
40
50.8
49
25.4
74
0
49
-12.7
74
0
49
0
74
0
49
-12.7
74
0
0
LTYPE
5
3B
330
5
100
AcDbSymbolTableRecord
100
AcDbLinetypeTableRecord
2
DIVIDE
70
0
3
Divide ____ . . ____ . . ____ . . ____ . . ____
72
65
73
6
40
31.75
49
12.7
74
0
49
-6.35
74
0
49
0
74
0
49
-6.35
74
0
49
0
74
0
49
-6.35
74
0
0
LTYPE
5
3C
330
5
100
AcDbSymbolTableRecord
100
AcDbLinetypeTableRecord
2
DIVIDE2
70
0
3
Divide (.5x) __..__..__..__..__..__..__..__.._
72
65
73
6
40
15.875
49
6.35
74
0
49
-3.175
74
0
49
0
74
0
49
-3.175
74
0
49
0
74
0
49
-3.175
74
0
0
LTYPE
5
3D
330
5
100
AcDbSymbolTableRecord
100
AcDbLinetypeTableRecord
2
DIVIDEX2
70
0
3
Divide (2x) ________  .  .  ________  .  .  _
72
65
73
6
40
63.5
49
25.4
74
0
49
-12.7
74
0
49
0
74
0
49
-12.7
74
0
49
0
74
0
49
-12.7
74
0
0
LTYPE
5
3E
330
5
100
AcDbSymbolTableRecord
100
AcDbLinetypeTableRecord
2
BORDER
70
0
3
Border __ __ . __ __ . __ __ . __ __ . __ __ .
72
65
73
6
40
44.45
49
12.7
74
0
49
-6.35
74
0
49
12.7
74
0
49
-6.35
74
0
49
0
74
0
49
-6.35
74
0
0
LTYPE
5
3F
330
5
100
AcDbSymbolTableRecord
100
AcDbLinetypeTableRecord
2
BORDER2
70
0
3
Border (.5x) __.__.__.__.__.__.__.__.__.__.__.
72
65
73
6
40
22.225
49
6.35
74
0
49
-3.175
74
0
49
6.35
74
0
49
-3.175
74
0
49
0
74
0
49
-3.175
74
0
0
LTYPE
5
40
330
5
100
AcDbSymbolTableRecord
100
AcDbLinetypeTableRecord
2
BORDERX2
70
0
3
Border (2x) ____  ____  .  ____  ____  .  ___
72
65
73
6
40
88.9
49
25.4
74
0
49
-12.7
74
0
49
25.4
74
0
49
-12.7
74
0
49
0
74
0
49
-12.7
74
0
0
LTYPE
5
41
330
5
100
AcDbSymbolTableRecord
100
AcDbLinetypeTableRecord
2
CENTER
70
0
3
Center ____ _ ____ _ ____ _ ____ _ ____ _ ____
72
65
73
4
40
50.8
49
31.75
74
0
49
-6.35
74
0
49
6.35
74
0
49
-6.35
74
0
0
LTYPE
5
42
330
5
100
AcDbSymbolTableRecord
100
AcDbLinetypeTableRecord
2
CENTER2
70
0
3
Center (.5x) ___ _ ___ _ ___ _ ___ _ ___ _ ___
72
65
73
4
40
28.575
49
19.05
74
0
49
-3.175
74
0
49
3.175
74
0
49
-3.175
74
0
0
LTYPE
5
43
330
5
100
AcDbSymbolTableRecord
100
AcDbLinetypeTableRecord
2
CENTERX2
70
0
3
Center (2x) ________  __  ________  __  _____
72
65
73
4
40
101.6
49
63.5
74
0
49
-12.7
74
0
49
12.7
74
0
49
-12.7
74
0
0
ENDTAB
0
TABLE
2
LAYER
5
2
330
0
100
AcDbSymbolTable
70
1
0
LAYER
5
10
330
2
100
AcDbSymbolTableRecord
100
AcDbLayerTableRecord
2
0
70
0
62
7
6
CONTINUOUS
370
0
390
F
0
LAYER
5
44
330
2
100
AcDbSymbolTableRecord
100
AcDbLayerTableRecord
2
engrave
70
0
62
2
6
CONTINUOUS
370
0
390
F
0
LAYER
5
45
330
2
100
AcDbSymbolTableRecord
100
AcDbLayerTableRecord
2
scratch
70
1
62
7
6
CONTINUOUS
370
0
390
F
0
LAYER
5
46
330
2
100
AcDbSymbolTableRecord
100
AcDbLayerTableRecord
2
vector
70
0
62
3
6
CONTINUOUS
370
0
390
F
0
LAYER
5
47
330
2
100
AcDbSymbolTableRecord
100
AcDbLayerTableRecord
2
engrave_old
70
1
62
56
420
8421376
6
CONTINUOUS
370
0
390
F
0
ENDTAB
0
TABLE
2
STYLE
5
3
330
0
100
AcDbSymbolTable
70
3
0
STYLE
5
48
330
2
100
AcDbSymbolTableRecord
100
AcDbTextStyleTableRecord
2
Standard
70
0
40
0
41
1
50
0
71
0
42
1
3
txt
4

0
ENDTAB
0
TABLE
2
VIEW
5
6
330
0
100
AcDbSymbolTable
70
0
0
ENDTAB
0
TABLE
2
UCS
5
7
330
0
100
AcDbSymbolTable
70
0
0
ENDTAB
0
TABLE
2
APPID
5
9
330
0
100
AcDbSymbolTable
70
1
0
APPID
5
12
330
9
100
AcDbSymbolTableRecord
100
AcDbRegAppTableRecord
2
ACAD
70
0
0
ENDTAB
0
TABLE
2
DIMSTYLE
5
A
330
0
100
AcDbSymbolTable
70
1
100
AcDbDimStyleTable
71
1
0
DIMSTYLE
105
49
330
A
100
AcDbSymbolTableRecord
100
AcDbDimStyleTableRecord
2
Standard
70
0
40
1
41
0.1
42
0.025
43
0.38
44
0.05
45
0
46
0
47
0
48
0
140
0.1
141
0.09
142
0
143
25.4
144
1
145
0
146
1
147
0.025
148
0
71
0
72
0
73
0
74
1
75
0
76
0
77
0
78
0
79
0
170
0
171
2
172
0
173
0
174
0
175
0
176
0
177
0
178
0
179
0
271
4
272
4
273
2
274
2
275
0
276
0
277
2
278
46
279
0
280
0
281
0
282
0
283
1
284
0
285
0
286
0
288
0
289
3
340
Standard
341

371
-2
372
-2
0
ENDTAB
0
TABLE
2
BLOCK_RECORD
5
1
330
0
100
AcDbSymbolTable
70
2
0
BLOCK_RECORD
5
1F
330
1
100
AcDbSymbolTableRecord
100
AcDbBlockTableRecord
2
*Model_Space
70
0
280
1
281
0
0
BLOCK_RECORD
5
1E
330
1
100
AcDbSymbolTableRecord
100
AcDbBlockTableRecord
2
*Paper_Space
70
0
280
1
281
0
0
ENDTAB
0
ENDSEC
0
SECTION
2
BLOCKS
0
BLOCK
5
20
330
1F
100
AcDbEntity
8
0
100
AcDbBlockBegin
2
*Model_Space
70
0
10
0
20
0
30
0
3
*Model_Space
1

0
ENDBLK
5
21
330
1F
100
AcDbEntity
8
0
100
AcDbBlockEnd
0
BLOCK
5
1C
330
1B
100
AcDbEntity
8
0
100
AcDbBlockBegin
2
*Paper_Space
70
0
10
0
20
0
30
0
3
*Paper_Space
1

0
ENDBLK
5
1D
330
1F
100
AcDbEntity
8
0
100
AcDbBlockEnd
0
ENDSEC
0
SECTION
2
ENTITIES
0
LINE
5
4A
100
AcDbEntity
8
engrave
6
ByLayer
62
256
370
-1
100
AcDbLine
10
4.1210285
20
4.4260515
11
4.1919985
21
4.4795735
0
LINE
5
4B
100
AcDbEntity
8
engrave
6
ByLayer
62
256
370
-1
100
AcDbLine
10
4.0848875
20
3.9840765
11
4.1462205
21
3.9197365
0
LINE
5
4C
100
AcDbEntity
8
engrave
6
ByLayer
62
256
370
-1
100
AcDbLine
10
4.1030705
20
3.87588627778
11
4.12529272222
21
3.8981085
0
LINE
5
4D
100
AcDbEntity
8
engrave
6
ByLayer
62
256
370
-1
100
AcDbLine
10
4.12529272222
20
3.8981085
11
4.12529272222
21
3.7981085
0
ARC
5
4E
100
AcDbEntity
8
engrave
6
ByLayer
62
256
370
-1
100
AcDbCircle
10
4.18084827778
20
3.88421961111
40
0.0138888888889
100
AcDbArc
50
36.8698976458
51
143.130102354
0
ARC
5
4F
100
AcDbEntity
8
engrave
6
ByLayer
62
256
370
-1
100
AcDbCircle
10
4.2530705
20
3.8481085
40
0.0944444444444
100
AcDbArc
50
151.927513064
51
208.072486936
0
ARC
5
50
100
AcDbEntity
8
engrave
6
ByLayer
62
256
370
-1
100
AcDbCircle
10
4.18084827778
20
3.81199738889
40
0.0138888888889
100
AcDbArc
50
216.869897646
51
323.130102354
0
ARC
5
51
100
AcDbEntity
8
engrave
6
ByLayer
62
256
370
-1
100
AcDbCircle
10
4.10862605556
20
3.8481085
40
0.0944444444444
100
AcDbArc
50
331.927513064
51
28.0724869359
0
ARC
5
52
100
AcDbEntity
8
engrave
6
ByLayer
62
256
370
-1
100
AcDbCircle
10
4.25862605556
20
3.88421961111
40
0.0138888888889
100
AcDbArc
50
36.8698976458
51
143.130102354
0
ARC
5
53
100
AcDbEntity
8
engrave
6
ByLayer
62
256
370
-1
100
AcDbCircle
10
4.33084827778
20
3.8481085
40
0.0944444444444
100
AcDbArc
50
151.927513064
51
208.072486936
0
ARC
5
54
100
AcDbEntity
8
engrave
6
ByLayer
62
256
370
-1
100
AcDbCircle
10
4.25862605556
20
3.81199738889
40
0.0138888888889
100
AcDbArc
50
216.869897646
51
323.130102354
0
ARC
5
55
100
AcDbEntity
8
engrave
6
ByLayer
62
256
370
-1
100
AcDbCircle
10
4.18640383333
20
3.8481085
40
0.0944444444444
100
AcDbArc
50
331.927513064
51
28.0724869359
0
LINE
5
56
100
AcDbEntity
8
engrave
6
ByLayer
62
256
370
-1
100
AcDbLine
10
4.2130705
20
4.60144183333
11
4.21604772222
21
4.60699738889
0
ARC
5
57
100
AcDbEntity
8
engrave
6
ByLayer
62
256
370
-1
100
AcDbCircle
10
4.23529272222
20
4.59588627778
40
0.0222222144514
100
AcDbArc
50
329.999988432
51
149.999988432
0
LINE
5
58
100
AcDbEntity
8
engrave
6
ByLayer
62
256
370
-1
100
AcDbLine
10
4.25453772222
20
4.58477516667
11
4.2130705
21
4.5181085
0
LINE
5
59
100
AcDbEntity
8
engrave
6
ByLayer
62
256
370
-1
100
AcDbLine
10
4.2130705
20
4.5181085
11
4.25751494444
21
4.5181085
0
LINE
5
5A
100
AcDbEntity
8
engrave
6
ByLayer
62
256
370
-1
100
AcDbLine
10
4.33529272222
20
4.6181085
11
4.29084827778
21
4.6181085
0
LINE
5
5B
100
AcDbEntity
8
engrave
6
ByLayer
62
256
370
-1
100
AcDbLine
10
4.29084827778
20
4.6181085
11
4.29084827778
21
4.57366405556
0
LINE
5
5C
100
AcDbEntity
8
engrave
6
ByLayer
62
256
370
-1
100
AcDbLine
10
4.29084827778
20
4.57366405556
11
4.3130705
21
4.57366405556
0
ARC
5
5D
100
AcDbEntity
8
engrave
6
ByLayer
62
256
370
-1
100
AcDbCircle
10
4.3130705166
20
4.55144184994
40
0.0222222056206
100
AcDbArc
50
359.999957196
51
90.0000428043
0
LINE
5
5E
100
AcDbEntity
8
engrave
6
ByLayer
62
256
370
-1
100
AcDbLine
10
4.33529272222
20
4.55144183333
11
4.33529272222
21
4.54033072222
0
ARC
5
5F
100
AcDbEntity
8
engrave
6
ByLayer
62
256
370
-1
100
AcDbCircle
10
4.3130705166
20
4.54033070562
40
0.0222222056206
100
AcDbArc
50
269.999957196
51
4.28042869768e-05
0
LINE
5
60
100
AcDbEntity
8
engrave
6
ByLayer
62
256
370
-1
100
AcDbLine
10
4.3130705
20
4.5181085
11
4.29084827778
21
4.5181085
0
ARC
5
61
100
AcDbEntity
8
engrave
6
ByLayer
62
256
370
-1
100
AcDbCircle
10
2.15084827778
20
2.62588627778
40
0.0277777777778
100
AcDbArc
50
180
51
0
0
LINE
5
62
100
AcDbEntity
8
engrave
6
ByLayer
62
256
370
-1
100
AcDbLine
10
2.1230705
20
2.62588627778
11
2.1230705
21
2.67033072222
0
ARC
5
63
100
AcDbEntity
8
engrave
6
ByLayer
62
256
370
-1
100
AcDbCircle
10
2.15084827778
20
2.67033072222
40
0.0277777777778
100
AcDbArc
50
0
51
180
0
LINE
5
64
100
AcDbEntity
8
engrave
6
ByLayer
62
256
370
-1
100
AcDbLine
10
2.17862605556
20
2.67033072222
11
2.17862605556
21
2.62588627778
0
LINE
5
65
100
AcDbEntity
8
engrave
6
ByLayer
62
256
370
-1
100
AcDbLine
10
2.21195938889
20
2.5981085
11
2.21195938889
21
2.6981085
0
LINE
5
66
100
AcDbEntity
8
engrave
6
ByLayer
62
256
370
-1
100
AcDbLine
10
2.21195938889
20
2.6981085
11
2.26751494444
21
2.5981085
0
LINE
5
67
100
AcDbEntity
8
engrave
6
ByLayer
62
256
370
-1
100
AcDbLine
10
2.26751494444
20
2.5981085
11
2.26751494444
21
2.6981085
0
ARC
5
68
100
AcDbEntity
8
engrave
6
ByLayer
62
256
370
-1
100
AcDbCircle
10
2.72084827778
20
2.62588627778
40
0.0277777777778
100
AcDbArc
50
180
51
0
0
LINE
5
69
100
AcDbEntity
8
engrave
6
ByLayer
62
256
370
-1
100
AcDbLine
10
2.6930705
20
2.62588627778
11
2.6930705
21
2.67033072222
0
ARC
5
6A
100
AcDbEntity
8
engrave
6
ByLayer
62
256
370
-1
100
AcDbCircle
10
2.72084827778
20
2.67033072222
40
0.0277777777778
100
AcDbArc
50
0
51
180
0
LINE
5
6B
100
AcDbEntity
8
engrave
6
ByLayer
62
256
370
-1
100
AcDbLine
10
2.74862605556
20
2.67033072222
11
2.74862605556
21
2.62588627778
0
LINE
5
6C
100
AcDbEntity
8
engrave
6
ByLayer
62
256
370
-1
100
AcDbLine
10
2.78195938889
20
2.5981085
11
2.78195938889
21
2.6981085
0
LINE
5
6D
100
AcDbEntity
8
engrave
6
ByLayer
62
256
370
-1
100
AcDbLine
10
2.78195938889
20
2.6981085
11
2.82640383333
21
2.6981085
0
LINE
5
6E
100
AcDbEntity
8
engrave
6
ByLayer
62
256
370
-1
100
AcDbLine
10
2.78195938889
20
2.65366405556
11
2.82640383333
21
2.65366405556
0
LINE
5
6F
100
AcDbEntity
8
engrave
6
ByLayer
62
256
370
-1
100
AcDbLine
10
2.85973716667
20
2.5981085
11
2.85973716667
21
2.6981085
0
LINE
5
70
100
AcDbEntity
8
engrave
6
ByLayer
62
256
370
-1
100
AcDbLine
10
2.85973716667
20
2.6981085
11
2.90418161111
21
2.6981085
0
LINE
5
71
100
AcDbEntity
8
engrave
6
ByLayer
62
256
370
-1
100
AcDbLine
10
2.85973716667
20
2.65366405556
11
2.90418161111
21
2.65366405556
0
LINE
5
72
100
AcDbEntity
8
vector
6
ByLayer
62
256
370
-1
100
AcDbLine
10
4.9130705
20
2.3181085
11
0.5818895
21
2.3181115
0
LINE
5
73
100
AcDbEntity
8
vector
6
ByLayer
62
256
370
-1
100
AcDbLine
10
0.5818895
20
2.6646475
11
0.5818895
21
3.4146875
0
LINE
5
74
100
AcDbEntity
8
vector
6
ByLayer
62
256
370
-1
100
AcDbLine
10
0.5818895
20
3.4146875
11
0.6999995
21
3.4146875
0
LINE
5
75
100
AcDbEntity
8
vector
6
ByLayer
62
256
370
-1
100
AcDbLine
10
0.6999995
20
3.4146875
11
0.6999995
21
2.6646475
0
LINE
5
76
100
AcDbEntity
8
vector
6
ByLayer
62
256
370
-1
100
AcDbLine
10
0.6999995
20
2.6646475
11
0.5818895
21
2.6646475
0
LINE
5
77
100
AcDbEntity
8
vector
6
ByLayer
62
256
370
-1
100
AcDbLine
10
1.1439755
20
2.4181115
11
1.1439755
21
2.5362215
0
LINE
5
78
100
AcDbEntity
8
vector
6
ByLayer
62
256
370
-1
100
AcDbLine
10
1.1439755
20
2.5362215
11
1.8939755
21
2.5362215
0
LINE
5
79
100
AcDbEntity
8
vector
6
ByLayer
62
256
370
-1
100
AcDbLine
10
1.8939755
20
2.5362215
11
1.8939755
21
2.4181115
0
LINE
5
7A
100
AcDbEntity
8
vector
6
ByLayer
62
256
370
-1
100
AcDbLine
10
1.8939755
20
2.4181115
11
1.1439755
21
2.4181115
0
LINE
5
7B
100
AcDbEntity
8
vector
6
ByLayer
62
256
370
-1
100
AcDbLine
10
2.3724795
20
2.4181115
11
2.3724795
21
2.5362215
0
LINE
5
7C
100
AcDbEntity
8
vector
6
ByLayer
62
256
370
-1
100
AcDbLine
10
2.3724795
20
2.5362215
11
3.1224795
21
2.5362215
0
LINE
5
7D
100
AcDbEntity
8
vector
6
ByLayer
62
256
370
-1
100
AcDbLine
10
3.1224795
20
2.5362215
11
3.1224795
21
2.4181115
0
LINE
5
7E
100
AcDbEntity
8
vector
6
ByLayer
62
256
370
-1
100
AcDbLine
10
3.1224795
20
2.4181115
11
2.3724795
21
2.4181115
0
LINE
5
7F
100
AcDbEntity
8
vector
6
ByLayer
62
256
370
-1
100
AcDbLine
10
3.6009835
20
2.4181115
11
3.6009835
21
2.5362215
0
LINE
5
80
100
AcDbEntity
8
vector
6
ByLayer
62
256
370
-1
100
AcDbLine
10
3.6009835
20
2.5362215
11
4.3509835
21
2.5362215
0
LINE
5
81
100
AcDbEntity
8
vector
6
ByLayer
62
256
370
-1
100
AcDbLine
10
4.3509835
20
2.5362215
11
4.3509835
21
2.4181115
0
LINE
5
82
100
AcDbEntity
8
vector
6
ByLayer
62
256
370
-1
100
AcDbLine
10
4.3509835
20
2.4181115
11
3.6009835
21
2.4181115
0
LINE
5
83
100
AcDbEntity
8
vector
6
ByLayer
62
256
370
-1
100
AcDbLine
10
4.7949605
20
2.6646475
11
4.7949605
21
3.4146875
0
LINE
5
84
100
AcDbEntity
8
vector
6
ByLayer
62
256
370
-1
100
AcDbLine
10
4.7949605
20
3.4146875
11
4.9130705
21
3.4146875
0
LINE
5
85
100
AcDbEntity
8
vector
6
ByLayer
62
256
370
-1
100
AcDbLine
10
4.9130705
20
3.4146875
11
4.9130705
21
2.6646475
0
LINE
5
86
100
AcDbEntity
8
vector
6
ByLayer
62
256
370
-1
100
AcDbLine
10
4.9130705
20
2.6646475
11
4.7949605
21
2.6646475
0
LINE
5
87
100
AcDbEntity
8
vector
6
ByLayer
62
256
370
-1
100
AcDbLine
10
0.58189
20
0.95
11
0.58189
21
1.45
0
LINE
5
88
100
AcDbEntity
8
vector
6
ByLayer
62
256
370
-1
100
AcDbLine
10
0.58189
20
1.45
11
0.7
21
1.45
0
LINE
5
89
100
AcDbEntity
8
vector
6
ByLayer
62
256
370
-1
100
AcDbLine
10
0.7
20
1.45
11
0.7
21
1.7
0
LINE
5
8A
100
AcDbEntity
8
vector
6
ByLayer
62
256
370
-1
100
AcDbLine
10
0.7
20
1.7
11
1.143977
21
1.7
0
LINE
5
8B
100
AcDbEntity
8
vector
6
ByLayer
62
256
370
-1
100
AcDbLine
10
1.143977
20
1.7
11
1.143977
21
1.81811
0
LINE
5
8C
100
AcDbEntity
8
vector
6
ByLayer
62
256
370
-1
100
AcDbLine
10
1.143977
20
1.81811
11
1.893977
21
1.81811
0
LINE
5
8D
100
AcDbEntity
8
vector
6
ByLayer
62
256
370
-1
100
AcDbLine
10
1.893977
20
1.81811
11
1.893977
21
1.7
0
LINE
5
8E
100
AcDbEntity
8
vector
6
ByLayer
62
256
370
-1
100
AcDbLine
10
1.893977
20
1.7
11
2.37248
21
1.7
0
LINE
5
8F
100
AcDbEntity
8
vector
6
ByLayer
62
256
370
-1
100
AcDbLine
10
2.37248
20
1.7
11
2.37248
21
1.81811
0
LINE
5
90
100
AcDbEntity
8
vector
6
ByLayer
62
256
370
-1
100
AcDbLine
10
2.37248
20
1.81811
11
3.12248
21
1.81811
0
LINE
5
91
100
AcDbEntity
8
vector
6
ByLayer
62
256
370
-1
100
AcDbLine
10
3.12248
20
1.81811
11
3.12248
21
1.7
0
LINE
5
92
100
AcDbEntity
8
vector
6
ByLayer
62
256
370
-1
100
AcDbLine
10
3.12248
20
1.7
11
3.600984
21
1.7
0
LINE
5
93
100
AcDbEntity
8
vector
6
ByLayer
62
256
370
-1
100
AcDbLine
10
3.600984
20
1.7
11
3.600984
21
1.81811
0
LINE
5
94
100
AcDbEntity
8
vector
6
ByLayer
62
256
370
-1
100
AcDbLine
10
3.600984
20
1.81811
11
4.350984
21
1.81811
0
LINE
5
95
100
AcDbEntity
8
vector
6
ByLayer
62
256
370
-1
100
AcDbLine
10
4.350984
20
1.81811
11
4.350984
21
1.7
0
LINE
5
96
100
AcDbEntity
8
vector
6
ByLayer
62
256
370
-1
100
AcDbLine
10
4.350984
20
1.7
11
4.794961
21
1.7
0
LINE
5
97
100
AcDbEntity
8
vector
6
ByLayer
62
256
370
-1
100
AcDbLine
10
4.794961
20
1.7
11
4.794961
21
1.45
0
LINE
5
98
100
AcDbEntity
8
vector
6
ByLayer
62
256
370
-1
100
AcDbLine
10
4.794961
20
1.45
11
4.913071
21
1.45
0
LINE
5
99
100
AcDbEntity
8
vector
6
ByLayer
62
256
370
-1
100
AcDbLine
10
4.913071
20
1.45
11
4.913071
21
0.95
0
LINE
5
9A
100
AcDbEntity
8
vector
6
ByLayer
62
256
370
-1
100
AcDbLine
10
4.913071
20
0.95
11
4.794961
21
0.95
0
LINE
5
9B
100
AcDbEntity
8
vector
6
ByLayer
62
256
370
-1
100
AcDbLine
10
4.794961
20
0.95
11
4.794961
21
0.7
0
LINE
5
9C
100
AcDbEntity
8
vector
6
ByLayer
62
256
370
-1
100
AcDbLine
10
4.794961
20
0.7
11
4.350984
21
0.7
0
LINE
5
9D
100
AcDbEntity
8
vector
6
ByLayer
62
256
370
-1
100
AcDbLine
10
4.350984
20
0.7
11
4.350984
21
0.581889
0
LINE
5
9E
100
AcDbEntity
8
vector
6
ByLayer
62
256
370
-1
100
AcDbLine
10
4.350984
20
0.581889
11
3.600984
21
0.581889
0
LINE
5
9F
100
AcDbEntity
8
vector
6
ByLayer
62
256
370
-1
100
AcDbLine
10
3.600984
20
0.581889
11
3.600984
21
0.7
0
LINE
5
A0
100
AcDbEntity
8
vector
6
ByLayer
62
256
370
-1
100
AcDbLine
10
3.600984
20
0.7
11
3.12248
21
0.7
0
LINE
5
A1
100
AcDbEntity
8
vector
6
ByLayer
62
256
370
-1
100
AcDbLine
10
3.12248
20
0.7
11
3.12248
21
0.581889
0
LINE
5
A2
100
AcDbEntity
8
vector
6
ByLayer
62
256
370
-1
100
AcDbLine
10
3.12248
20
0.581889
11
2.37248
21
0.581889
0
LINE
5
A3
100
AcDbEntity
8
vector
6
ByLayer
62
256
370
-1
100
AcDbLine
10
2.37248
20
0.581889
11
2.37248
21
0.7
0
LINE
5
A4
100
AcDbEntity
8
vector
6
ByLayer
62
256
370
-1
100
AcDbLine
10
2.37248
20
0.7
11
1.893977
21
0.7
0
LINE
5
A5
100
AcDbEntity
8
vector
6
ByLayer
62
256
370
-1
100
AcDbLine
10
1.893977
20
0.7
11
1.893977
21
0.581889
0
LINE
5
A6
100
AcDbEntity
8
vector
6
ByLayer
62
256
370
-1
100
AcDbLine
10
1.893977
20
0.581889
11
1.143977
21
0.581889
0
LINE
5
A7
100
AcDbEntity
8
vector
6
ByLayer
62
256
370
-1
100
AcDbLine
10
1.143977
20
0.581889
11
1.143977
21
0.7
0
LINE
5
A8
100
AcDbEntity
8
vector
6
ByLayer
62
256
370
-1
100
AcDbLine
10
1.143977
20
0.7
11
0.7
21
0.7
0
LINE
5
A9
100
AcDbEntity
8
vector
6
ByLayer
62
256
370
-1
100
AcDbLine
10
0.7
20
0.7
11
0.7
21
0.95
0
LINE
5
AA
100
AcDbEntity
8
vector
6
ByLayer
62
256
370
-1
100
AcDbLine
10
0.7
20
0.95
11
0.58189
21
0.95
0
LINE
5
AB
100
AcDbEntity
8
vector
6
ByLayer
62
256
370
-1
100
AcDbLine
10
2.07748
20
1.212362
11
2.07748
21
1.433622
0
LINE
5
AC
100
AcDbEntity
8
vector
6
ByLayer
62
256
370
-1
100
AcDbLine
10
2.116851
20
1.473025
11
2.790118
21
1.472992
0
LINE
5
AD
100
AcDbEntity
8
vector
6
ByLayer
62
256
370
-1
100
AcDbLine
10
2.829489
20
1.433622
11
2.829488
21
1.212362
0
LINE
5
AE
100
AcDbEntity
8
vector
6
ByLayer
62
256
370
-1
100
AcDbLine
10
2.790118
20
1.172959
11
2.116851
21
1.172992
0
LINE
5
AF
100
AcDbEntity
8
vector
6
ByLayer
62
256
370
-1
100
AcDbLine
10
3.285473
20
1.137362
11
3.285473
21
1.508622
0
LINE
5
B0
100
AcDbEntity
8
vector
6
ByLayer
62
256
370
-1
100
AcDbLine
10
3.324843
20
1.548025
11
4.146102
21
1.547992
0
LINE
5
B1
100
AcDbEntity
8
vector
6
ByLayer
62
256
370
-1
100
AcDbLine
10
4.185472
20
1.508622
11
4.185473
21
1.137362
0
LINE
5
B2
100
AcDbEntity
8
vector
6
ByLayer
62
256
370
-1
100
AcDbLine
10
4.146102
20
1.097959
11
3.324843
21
1.097992
0
LINE
5
B3
100
AcDbEntity
8
vector
6
ByLayer
62
256
370
-1
100
AcDbLine
10
6.5130695
20
3.4146865
11
6.6311805
21
3.4146865
0
LINE
5
B4
100
AcDbEntity
8
vector
6
ByLayer
62
256
370
-1
100
AcDbLine
10
6.6311805
20
3.4146865
11
6.6311805
21
2.6646475
0
LINE
5
B5
100
AcDbEntity
8
vector
6
ByLayer
62
256
370
-1
100
AcDbLine
10
6.6311805
20
2.6646475
11
6.5130695
21
2.6646475
0
LINE
5
B6
100
AcDbEntity
8
vector
6
ByLayer
62
256
370
-1
100
AcDbLine
10
6.5130695
20
2.6646475
11
6.5130695
21
2.4181115
0
LINE
5
B7
100
AcDbEntity
8
vector
6
ByLayer
62
256
370
-1
100
AcDbLine
10
6.5130695
20
2.4181115
11
6.2630695
21
2.4181115
0
LINE
5
B8
100
AcDbEntity
8
vector
6
ByLayer
62
256
370
-1
100
AcDbLine
10
6.2630695
20
2.4181115
11
6.2630695
21
2.5362225
0
LINE
5
B9
100
AcDbEntity
8
vector
6
ByLayer
62
256
370
-1
100
AcDbLine
10
6.2630695
20
2.5362225
11
5.7631085
21
2.5362225
0
LINE
5
BA
100
AcDbEntity
8
vector
6
ByLayer
62
256
370
-1
100
AcDbLine
10
5.7631085
20
2.5362225
11
5.7631085
21
2.4181115
0
LINE
5
BB
100
AcDbEntity
8
vector
6
ByLayer
62
256
370
-1
100
AcDbLine
10
5.7631085
20
2.4181115
11
5.5130705
21
2.4181115
0
LINE
5
BC
100
AcDbEntity
8
vector
6
ByLayer
62
256
370
-1
100
AcDbLine
10
5.5130705
20
2.4181115
11
5.5130705
21
2.6646475
0
LINE
5
BD
100
AcDbEntity
8
vector
6
ByLayer
62
256
370
-1
100
AcDbLine
10
5.5130705
20
2.6646475
11
5.3949605
21
2.6646475
0
LINE
5
BE
100
AcDbEntity
8
vector
6
ByLayer
62
256
370
-1
100
AcDbLine
10
5.3949605
20
2.6646475
11
5.3949605
21
3.4146865
0
LINE
5
BF
100
AcDbEntity
8
vector
6
ByLayer
62
256
370
-1
100
AcDbLine
10
5.3949605
20
3.4146865
11
5.5130705
21
3.4146865
0
LINE
5
C0
100
AcDbEntity
8
vector
6
ByLayer
62
256
370
-1
100
AcDbLine
10
11.4442505
20
2.3181085
11
7.1130695
21
2.3181115
0
LINE
5
C1
100
AcDbEntity
8
vector
6
ByLayer
62
256
370
-1
100
AcDbLine
10
7.1130695
20
2.6646475
11
7.1130695
21
3.4146865
0
LINE
5
C2
100
AcDbEntity
8
vector
6
ByLayer
62
256
370
-1
100
AcDbLine
10
7.1130695
20
3.4146865
11
7.2311795
21
3.4146865
0
LINE
5
C3
100
AcDbEntity
8
vector
6
ByLayer
62
256
370
-1
100
AcDbLine
10
7.2311795
20
3.4146865
11
7.2311795
21
2.6646475
0
LINE
5
C4
100
AcDbEntity
8
vector
6
ByLayer
62
256
370
-1
100
AcDbLine
10
7.2311795
20
2.6646475
11
7.1130695
21
2.6646475
0
LINE
5
C5
100
AcDbEntity
8
vector
6
ByLayer
62
256
370
-1
100
AcDbLine
10
7.6751565
20
2.4181115
11
7.6751565
21
2.5362215
0
LINE
5
C6
100
AcDbEntity
8
vector
6
ByLayer
62
256
370
-1
100
AcDbLine
10
7.6751565
20
2.5362215
11
8.4251565
21
2.5362215
0
LINE
5
C7
100
AcDbEntity
8
vector
6
ByLayer
62
256
370
-1
100
AcDbLine
10
8.4251565
20
2.5362215
11
8.4251565
21
2.4181115
0
LINE
5
C8
100
AcDbEntity
8
vector
6
ByLayer
62
256
370
-1
100
AcDbLine
10
8.4251565
20
2.4181115
11
7.6751565
21
2.4181115
0
LINE
5
C9
100
AcDbEntity
8
vector
6
ByLayer
62
256
370
-1
100
AcDbLine
10
8.9036595
20
2.4181115
11
8.9036595
21
2.5362215
0
LINE
5
CA
100
AcDbEntity
8
vector
6
ByLayer
62
256
370
-1
100
AcDbLine
10
8.9036595
20
2.5362215
11
9.6536595
21
2.5362215
0
LINE
5
CB
100
AcDbEntity
8
vector
6
ByLayer
62
256
370
-1
100
AcDbLine
10
9.6536595
20
2.5362215
11
9.6536595
21
2.4181115
0
LINE
5
CC
100
AcDbEntity
8
vector
6
ByLayer
62
256
370
-1
100
AcDbLine
10
9.6536595
20
2.4181115
11
8.9036595
21
2.4181115
0
LINE
5
CD
100
AcDbEntity
8
vector
6
ByLayer
62
256
370
-1
100
AcDbLine
10
10.1321635
20
2.4181115
11
10.1321635
21
2.5362215
0
LINE
5
CE
100
AcDbEntity
8
vector
6
ByLayer
62
256
370
-1
100
AcDbLine
10
10.1321635
20
2.5362215
11
10.8821635
21
2.5362215
0
LINE
5
CF
100
AcDbEntity
8
vector
6
ByLayer
62
256
370
-1
100
AcDbLine
10
10.8821635
20
2.5362215
11
10.8821635
21
2.4181115
0
LINE
5
D0
100
AcDbEntity
8
vector
6
ByLayer
62
256
370
-1
100
AcDbLine
10
10.8821635
20
2.4181115
11
10.1321635
21
2.4181115
0
LINE
5
D1
100
AcDbEntity
8
vector
6
ByLayer
62
256
370
-1
100
AcDbLine
10
11.3261405
20
2.6646475
11
11.3261405
21
3.4146865
0
LINE
5
D2
100
AcDbEntity
8
vector
6
ByLayer
62
256
370
-1
100
AcDbLine
10
11.3261405
20
3.4146865
11
11.4442505
21
3.4146865
0
LINE
5
D3
100
AcDbEntity
8
vector
6
ByLayer
62
256
370
-1
100
AcDbLine
10
11.4442505
20
3.4146865
11
11.4442505
21
2.6646475
0
LINE
5
D4
100
AcDbEntity
8
vector
6
ByLayer
62
256
370
-1
100
AcDbLine
10
11.4442505
20
2.6646475
11
11.3261405
21
2.6646475
0
CIRCLE
5
D5
100
AcDbEntity
8
vector
6
ByLayer
62
256
370
-1
100
AcDbCircle
10
0.874967299481
20
2.71121613774
40
0.0580045481638
0
CIRCLE
5
D6
100
AcDbEntity
8
vector
6
ByLayer
62
256
370
-1
100
AcDbCircle
10
3.85811821139
20
4.23923118829
40
0.275007439296
0
CIRCLE
5
D7
100
AcDbEntity
8
vector
6
ByLayer
62
256
370
-1
100
AcDbCircle
10
4.61998948926
20
2.7112129312
40
0.0579884851725
0
CIRCLE
5
D8
100
AcDbEntity
8
vector
6
ByLayer
62
256
370
-1
100
AcDbCircle
10
1.67548112312
20
1.27299782315
40
0.209987969059
0
CIRCLE
5
D9
100
AcDbEntity
8
vector
6
ByLayer
62
256
370
-1
100
AcDbCircle
10
7.40615021942
20
2.71121047765
40
0.0579896925486
0
CIRCLE
5
DA
100
AcDbEntity
8
vector
6
ByLayer
62
256
370
-1
100
AcDbCircle
10
7.70367041644
20
2.71122278008
40
0.0579963188034
0
CIRCLE
5
DB
100
AcDbEntity
8
vector
6
ByLayer
62
256
370
-1
100
AcDbCircle
10
10.8536533923
20
2.71122179451
40
0.0579989783966
0
CIRCLE
5
DC
100
AcDbEntity
8
vector
6
ByLayer
62
256
370
-1
100
AcDbCircle
10
11.1511637574
20
2.71121220186
40
0.0579935499587
0
ARC
5
DD
100
AcDbEntity
8
vector
6
ByLayer
62
256
370
-1
100
AcDbCircle
10
0.581838937762
20
2.41806093776
40
0.0999494505509
100
AcDbArc
50
179.971015319
51
270.028984681
0
ARC
5
DE
100
AcDbEntity
8
vector
6
ByLayer
62
256
370
-1
100
AcDbCircle
10
4.91310934098
20
2.41806966023
40
0.0999611677732
100
AcDbArc
50
269.97773711
51
0.0239817373332
0
ARC
5
DF
100
AcDbEntity
8
vector
6
ByLayer
62
256
370
-1
100
AcDbCircle
10
2.11687497587
20
1.43363003061
40
0.0393949766856
100
AcDbArc
50
90.0348703361
51
180.011679664
0
ARC
5
E0
100
AcDbEntity
8
vector
6
ByLayer
62
256
370
-1
100
AcDbCircle
10
2.79014863808
20
1.43365163884
40
0.0393403730893
100
AcDbArc
50
359.956833641
51
90.0446216561
0
ARC
5
E1
100
AcDbEntity
8
vector
6
ByLayer
62
256
370
-1
100
AcDbCircle
10
2.79003174684
20
1.21241519475
40
0.0394562890227
100
AcDbArc
50
270.125251166
51
359.92275413
0
ARC
5
E2
100
AcDbEntity
8
vector
6
ByLayer
62
256
370
-1
100
AcDbCircle
10
2.11691526528
20
1.21242726693
40
0.0394353192927
100
AcDbArc
50
180.094826701
51
269.906628596
0
ARC
5
E3
100
AcDbEntity
8
vector
6
ByLayer
62
256
370
-1
100
AcDbCircle
10
3.32489531052
20
1.50860271947
40
0.0394223152332
100
AcDbArc
50
90.0760273156
51
179.971977981
0
ARC
5
E4
100
AcDbEntity
8
vector
6
ByLayer
62
256
370
-1
100
AcDbCircle
10
4.1461333984
20
1.5086533984
40
0.0393386141318
100
AcDbArc
50
359.954268955
51
90.0457310446
0
ARC
5
E5
100
AcDbEntity
8
vector
6
ByLayer
62
256
370
-1
100
AcDbCircle
10
4.14601497766
20
1.13741696466
40
0.0394580606251
100
AcDbArc
50
270.126362444
51
359.920187556
0
ARC
5
E6
100
AcDbEntity
8
vector
6
ByLayer
62
256
370
-1
100
AcDbCircle
10
3.32490669926
20
1.13742569926
40
0.0394337507119
100
AcDbArc
50
180.092552711
51
269.907447289
0
ARC
5
E7
100
AcDbEntity
8
vector
6
ByLayer
62
256
370
-1
100
AcDbCircle
10
11.444289341
20
2.41806966023
40
0.0999611677732
100
AcDbArc
50
269.97773711
51
0.0239817373363
0
ARC
5
E8
100
AcDbEntity
8
vector
6
ByLayer
62
256
370
-1
100
AcDbCircle
10
7.1130256971
20
2.4180676971
40
0.0999562066999
100
AcDbArc
50
179.974891792
51
270.025108208
0
LINE
5
E9
100
AcDbEntity
8
vector
6
ByLayer
62
256
370
-1
100
AcDbLine
10
0.581891346402
20
5.80433184427
11
4.9130723464
21
5.80432984427
0
LINE
5
EA
100
AcDbEntity
8
vector
6
ByLayer
62
256
370
-1
100
AcDbLine
10
0.581891346402
20
4.70779484427
11
0.581891346402
21
5.45775484427
0
LINE
5
EB
100
AcDbEntity
8
vector
6
ByLayer
62
256
370
-1
100
AcDbLine
10
0.581891346402
20
5.45775484427
11
0.700001346402
21
5.45775484427
0
LINE
5
EC
100
AcDbEntity
8
vector
6
ByLayer
62
256
370
-1
100
AcDbLine
10
0.700001346402
20
5.45775484427
11
0.700001346402
21
4.70779484427
0
LINE
5
ED
100
AcDbEntity
8
vector
6
ByLayer
62
256
370
-1
100
AcDbLine
10
0.700001346402
20
4.70779484427
11
0.581891346402
21
4.70779484427
0
LINE
5
EE
100
AcDbEntity
8
vector
6
ByLayer
62
256
370
-1
100
AcDbLine
10
1.1439773464
20
5.58621884427
11
1.1439773464
21
5.70432984427
0
LINE
5
EF
100
AcDbEntity
8
vector
6
ByLayer
62
256
370
-1
100
AcDbLine
10
1.1439773464
20
5.70432984427
11
1.8939773464
21
5.70432984427
0
LINE
5
F0
100
AcDbEntity
8
vector
6
ByLayer
62
256
370
-1
100
AcDbLine
10
1.8939773464
20
5.70432984427
11
1.8939773464
21
5.58621884427
0
LINE
5
F1
100
AcDbEntity
8
vector
6
ByLayer
62
256
370
-1
100
AcDbLine
10
1.8939773464
20
5.58621884427
11
1.1439773464
21
5.58621884427
0
LINE
5
F2
100
AcDbEntity
8
vector
6
ByLayer
62
256
370
-1
100
AcDbLine
10
2.3724813464
20
5.58621884427
11
2.3724813464
21
5.70432984427
0
LINE
5
F3
100
AcDbEntity
8
vector
6
ByLayer
62
256
370
-1
100
AcDbLine
10
2.3724813464
20
5.70432984427
11
3.1224813464
21
5.70432984427
0
LINE
5
F4
100
AcDbEntity
8
vector
6
ByLayer
62
256
370
-1
100
AcDbLine
10
3.1224813464
20
5.70432984427
11
3.1224813464
21
5.58621884427
0
LINE
5
F5
100
AcDbEntity
8
vector
6
ByLayer
62
256
370
-1
100
AcDbLine
10
3.1224813464
20
5.58621884427
11
2.3724813464
21
5.58621884427
0
LINE
5
F6
100
AcDbEntity
8
vector
6
ByLayer
62
256
370
-1
100
AcDbLine
10
3.6009853464
20
5.58621884427
11
3.6009853464
21
5.70432984427
0
LINE
5
F7
100
AcDbEntity
8
vector
6
ByLayer
62
256
370
-1
100
AcDbLine
10
3.6009853464
20
5.70432984427
11
4.3509853464
21
5.70432984427
0
LINE
5
F8
100
AcDbEntity
8
vector
6
ByLayer
62
256
370
-1
100
AcDbLine
10
4.3509853464
20
5.70432984427
11
4.3509853464
21
5.58621884427
0
LINE
5
F9
100
AcDbEntity
8
vector
6
ByLayer
62
256
370
-1
100
AcDbLine
10
4.7949623464
20
4.70779484427
11
4.7949623464
21
5.45775484427
0
LINE
5
FA
100
AcDbEntity
8
vector
6
ByLayer
62
256
370
-1
100
AcDbLine
10
4.7949623464
20
5.45775484427
11
4.9130723464
21
5.45775484427
0
LINE
5
FB
100
AcDbEntity
8
vector
6
ByLayer
62
256
370
-1
100
AcDbLine
10
4.9130723464
20
5.45775484427
11
4.9130723464
21
4.70779484427
0
LINE
5
FC
100
AcDbEntity
8
vector
6
ByLayer
62
256
370
-1
100
AcDbLine
10
4.9130723464
20
4.70779484427
11
4.7949623464
21
4.70779484427
0
LINE
5
FD
100
AcDbEntity
8
vector
6
ByLayer
62
256
370
-1
100
AcDbLine
10
4.3509853464
20
5.58621884427
11
3.6009853464
21
5.58621884427
0
LINE
5
FE
100
AcDbEntity
8
vector
6
ByLayer
62
256
370
-1
100
AcDbLine
10
6.6311823464
20
5.45779384427
11
6.6311823464
21
4.70775484427
0
LINE
5
FF
100
AcDbEntity
8
vector
6
ByLayer
62
256
370
-1
100
AcDbLine
10
6.6311823464
20
4.70775484427
11
6.5130713464
21
4.70775484427
0
LINE
5
100
100
AcDbEntity
8
vector
6
ByLayer
62
256
370
-1
100
AcDbLine
10
5.5130723464
20
4.70775484427
11
5.3949623464
21
4.70775484427
0
LINE
5
101
100
AcDbEntity
8
vector
6
ByLayer
62
256
370
-1
100
AcDbLine
10
5.3949623464
20
4.70775484427
11
5.3949623464
21
5.45779384427
0
LINE
5
102
100
AcDbEntity
8
vector
6
ByLayer
62
256
370
-1
100
AcDbLine
10
5.3949623464
20
5.45779384427
11
5.5130723464
21
5.45779384427
0
LINE
5
103
100
AcDbEntity
8
vector
6
ByLayer
62
256
370
-1
100
AcDbLine
10
5.5130723464
20
5.45779384427
11
5.5130723464
21
5.70432984427
0
LINE
5
104
100
AcDbEntity
8
vector
6
ByLayer
62
256
370
-1
100
AcDbLine
10
5.5130723464
20
5.70432984427
11
5.7631103464
21
5.70432984427
0
LINE
5
105
100
AcDbEntity
8
vector
6
ByLayer
62
256
370
-1
100
AcDbLine
10
5.7631103464
20
5.70432984427
11
5.7631103464
21
5.58621984427
0
LINE
5
106
100
AcDbEntity
8
vector
6
ByLayer
62
256
370
-1
100
AcDbLine
10
5.7631103464
20
5.58621984427
11
6.2630713464
21
5.58621984427
0
LINE
5
107
100
AcDbEntity
8
vector
6
ByLayer
62
256
370
-1
100
AcDbLine
10
6.2630713464
20
5.58621984427
11
6.2630713464
21
5.70432984427
0
LINE
5
108
100
AcDbEntity
8
vector
6
ByLayer
62
256
370
-1
100
AcDbLine
10
6.2630713464
20
5.70432984427
11
6.5130713464
21
5.70432984427
0
LINE
5
109
100
AcDbEntity
8
vector
6
ByLayer
62
256
370
-1
100
AcDbLine
10
6.5130713464
20
5.70432984427
11
6.5130713464
21
5.45779384427
0
LINE
5
10A
100
AcDbEntity
8
vector
6
ByLayer
62
256
370
-1
100
AcDbLine
10
6.5130713464
20
5.45779384427
11
6.6311823464
21
5.45779384427
0
LINE
5
10B
100
AcDbEntity
8
vector
6
ByLayer
62
256
370
-1
100
AcDbLine
10
7.1130713464
20
5.80432884427
11
11.4442523464
21
5.80432984427
0
LINE
5
10C
100
AcDbEntity
8
vector
6
ByLayer
62
256
370
-1
100
AcDbLine
10
7.1130713464
20
4.70775484427
11
7.1130713464
21
5.45779384427
0
LINE
5
10D
100
AcDbEntity
8
vector
6
ByLayer
62
256
370
-1
100
AcDbLine
10
7.1130713464
20
5.45779384427
11
7.2311813464
21
5.45779384427
0
LINE
5
10E
100
AcDbEntity
8
vector
6
ByLayer
62
256
370
-1
100
AcDbLine
10
7.2311813464
20
5.45779384427
11
7.2311813464
21
4.70775484427
0
LINE
5
10F
100
AcDbEntity
8
vector
6
ByLayer
62
256
370
-1
100
AcDbLine
10
7.2311813464
20
4.70775484427
11
7.1130713464
21
4.70775484427
0
LINE
5
110
100
AcDbEntity
8
vector
6
ByLayer
62
256
370
-1
100
AcDbLine
10
7.6751583464
20
5.58621884427
11
7.6751583464
21
5.70432984427
0
LINE
5
111
100
AcDbEntity
8
vector
6
ByLayer
62
256
370
-1
100
AcDbLine
10
7.6751583464
20
5.70432984427
11
8.4251583464
21
5.70432984427
0
LINE
5
112
100
AcDbEntity
8
vector
6
ByLayer
62
256
370
-1
100
AcDbLine
10
8.4251583464
20
5.70432984427
11
8.4251583464
21
5.58621884427
0
LINE
5
113
100
AcDbEntity
8
vector
6
ByLayer
62
256
370
-1
100
AcDbLine
10
8.4251583464
20
5.58621884427
11
7.6751583464
21
5.58621884427
0
LINE
5
114
100
AcDbEntity
8
vector
6
ByLayer
62
256
370
-1
100
AcDbLine
10
8.9036613464
20
5.58621884427
11
8.9036613464
21
5.70432984427
0
LINE
5
115
100
AcDbEntity
8
vector
6
ByLayer
62
256
370
-1
100
AcDbLine
10
8.9036613464
20
5.70432984427
11
9.6536613464
21
5.70432984427
0
LINE
5
116
100
AcDbEntity
8
vector
6
ByLayer
62
256
370
-1
100
AcDbLine
10
9.6536613464
20
5.70432984427
11
9.6536613464
21
5.58621884427
0
LINE
5
117
100
AcDbEntity
8
vector
6
ByLayer
62
256
370
-1
100
AcDbLine
10
9.6536613464
20
5.58621884427
11
8.9036613464
21
5.58621884427
0
LINE
5
118
100
AcDbEntity
8
vector
6
ByLayer
62
256
370
-1
100
AcDbLine
10
10.1321653464
20
5.58621884427
11
10.1321653464
21
5.70432984427
0
LINE
5
119
100
AcDbEntity
8
vector
6
ByLayer
62
256
370
-1
100
AcDbLine
10
10.1321653464
20
5.70432984427
11
10.8821653464
21
5.70432984427
0
LINE
5
11A
100
AcDbEntity
8
vector
6
ByLayer
62
256
370
-1
100
AcDbLine
10
10.8821653464
20
5.70432984427
11
10.8821653464
21
5.58621884427
0
LINE
5
11B
100
AcDbEntity
8
vector
6
ByLayer
62
256
370
-1
100
AcDbLine
10
10.8821653464
20
5.58621884427
11
10.1321653464
21
5.58621884427
0
LINE
5
11C
100
AcDbEntity
8
vector
6
ByLayer
62
256
370
-1
100
AcDbLine
10
11.3261423464
20
4.70775484427
11
11.3261423464
21
5.45779384427
0
LINE
5
11D
100
AcDbEntity
8
vector
6
ByLayer
62
256
370
-1
100
AcDbLine
10
11.3261423464
20
5.45779384427
11
11.4442523464
21
5.45779384427
0
LINE
5
11E
100
AcDbEntity
8
vector
6
ByLayer
62
256
370
-1
100
AcDbLine
10
11.4442523464
20
5.45779384427
11
11.4442523464
21
4.70775484427
0
LINE
5
11F
100
AcDbEntity
8
vector
6
ByLayer
62
256
370
-1
100
AcDbLine
10
11.4442523464
20
4.70775484427
11
11.3261423464
21
4.70775484427
0
CIRCLE
5
120
100
AcDbEntity
8
vector
6
ByLayer
62
256
370
-1
100
AcDbCircle
10
0.874981346402
20
5.41121989552
40
0.0579884703049
0
CIRCLE
5
121
100
AcDbEntity
8
vector
6
ByLayer
62
256
370
-1
100
AcDbCircle
10
4.6199818464
20
5.41120423927
40
0.0579843367797
0
CIRCLE
5
122
100
AcDbEntity
8
vector
6
ByLayer
62
256
370
-1
100
AcDbCircle
10
7.4061742693
20
5.41122030564
40
0.0579995954771
0
CIRCLE
5
123
100
AcDbEntity
8
vector
6
ByLayer
62
256
370
-1
100
AcDbCircle
10
7.70366754
20
5.41121866311
40
0.0579938746663
0
CIRCLE
5
124
100
AcDbEntity
8
vector
6
ByLayer
62
256
370
-1
100
AcDbCircle
10
10.8536533923
20
5.41122179451
40
0.0579981095082
0
CIRCLE
5
125
100
AcDbEntity
8
vector
6
ByLayer
62
256
370
-1
100
AcDbCircle
10
11.1511544771
20
5.41120614979
40
0.0579890795124
0
ARC
5
126
100
AcDbEntity
8
vector
6
ByLayer
62
256
370
-1
100
AcDbCircle
10
0.581847436641
20
5.70437575313
40
0.0999561007819
100
AcDbArc
50
89.9748305102
51
180.026315394
0
ARC
5
127
100
AcDbEntity
8
vector
6
ByLayer
62
256
370
-1
100
AcDbCircle
10
4.91307977844
20
5.70433727631
40
0.0999925682381
100
AcDbArc
50
359.995741439
51
90.0042585607
0
ARC
5
128
100
AcDbEntity
8
vector
6
ByLayer
62
256
370
-1
100
AcDbCircle
10
7.11301889799
20
5.70438129321
40
0.099947564826
100
AcDbArc
50
89.9699335045
51
180.029493535
0
ARC
5
129
100
AcDbEntity
8
vector
6
ByLayer
62
256
370
-1
100
AcDbCircle
10
11.4442953875
20
5.70437188576
40
0.0999579677817
100
AcDbArc
50
359.975901874
51
90.0246710811
0
LINE
5
12A
100
AcDbEntity
8
vector
6
ByLayer
62
256
370
-1
100
AcDbLine
10
0.4818895
20
2.4181115
11
0.481891346402
21
5.70432984427
0
LINE
5
12B
100
AcDbEntity
8
vector
6
ByLayer
62
256
370
-1
100
AcDbLine
10
5.0130705
20
2.4181115
11
5.0130723464
21
5.70432984427
0
LINE
5
12C
100
AcDbEntity
8
vector
6
ByLayer
62
256
370
-1
100
AcDbLine
10
7.0130695
20
2.4181115
11
7.0130713464
21
5.70432984427
0
LINE
5
12D
100
AcDbEntity
8
vector
6
ByLayer
62
256
370
-1
100
AcDbLine
10
11.5442533464
20
5.70432984427
11
11.5442505
21
2.4181115
0
LINE
5
12E
100
AcDbEntity
8
vector
6
ByLayer
62
256
370
-1
100
AcDbLine
10
5.5130723464
20
4.70775484427
11
5.5130705
21
3.4146865
0
LINE
5
12F
100
AcDbEntity
8
vector
6
ByLayer
62
256
370
-1
100
AcDbLine
10
6.5130713464
20
4.70775484427
11
6.5130695
21
3.4146865
0
LINE
5
130
100
AcDbEntity
8
engrave_old
6
ByLayer
62
256
370
-1
100
AcDbLine
10
3.74996515751
20
4.75017525785
11
3.74843288267
21
4.75044218531
0
LINE
5
131
100
AcDbEntity
8
engrave_old
6
ByLayer
62
256
370
-1
100
AcDbLine
10
3.74843288267
20
4.75044218531
11
3.74685275444
21
4.75065091815
0
LINE
5
132
100
AcDbEntity
8
engrave_old
6
ByLayer
62
256
370
-1
100
AcDbLine
10
3.74685275444
20
4.75065091815
11
3.74522549789
21
4.75080081147
0
LINE
5
133
100
AcDbEntity
8
engrave_old
6
ByLayer
62
256
370
-1
100
AcDbLine
10
3.74522549789
20
4.75080081147
11
3.74355183806
21
4.75089122039
0
LINE
5
134
100
AcDbEntity
8
engrave_old
6
ByLayer
62
256
370
-1
100
AcDbLine
10
3.74355183806
20
4.75089122039
11
3.7418325
21
4.7509215
0
LINE
5
135
100
AcDbEntity
8
engrave_old
6
ByLayer
62
256
370
-1
100
AcDbLine
10
3.7418325
20
4.7509215
11
3.7400153136
21
4.75088905617
0
LINE
5
136
100
AcDbEntity
8
engrave_old
6
ByLayer
62
256
370
-1
100
AcDbLine
10
3.7400153136
20
4.75088905617
11
3.73825405564
21
4.75079181412
0
LINE
5
137
100
AcDbEntity
8
engrave_old
6
ByLayer
62
256
370
-1
100
AcDbLine
10
3.73825405564
20
4.75079181412
11
3.73654888763
21
4.75062990798
0
LINE
5
138
100
AcDbEntity
8
engrave_old
6
ByLayer
62
256
370
-1
100
AcDbLine
10
3.73654888763
20
4.75062990798
11
3.73489997112
21
4.75040347187
0
LINE
5
139
100
AcDbEntity
8
engrave_old
6
ByLayer
62
256
370
-1
100
AcDbLine
10
3.73489997112
20
4.75040347187
11
3.73330746761
21
4.75011263994
0
LINE
5
13A
100
AcDbEntity
8
engrave_old
6
ByLayer
62
256
370
-1
100
AcDbLine
10
3.8168515
20
4.7509215
11
3.81600246059
21
4.75090946851
0
LINE
5
13B
100
AcDbEntity
8
engrave_old
6
ByLayer
62
256
370
-1
100
AcDbLine
10
3.81600246059
20
4.75090946851
11
3.81515887256
21
4.75087353531
0
LINE
5
13C
100
AcDbEntity
8
engrave_old
6
ByLayer
62
256
370
-1
100
AcDbLine
10
3.81515887256
20
4.75087353531
11
3.81432119249
21
4.75081394228
0
LINE
5
13D
100
AcDbEntity
8
engrave_old
6
ByLayer
62
256
370
-1
100
AcDbLine
10
3.81432119249
20
4.75081394228
11
3.81348987696
21
4.7507309313
0
LINE
5
13E
100
AcDbEntity
8
engrave_old
6
ByLayer
62
256
370
-1
100
AcDbLine
10
3.81348987696
20
4.7507309313
11
3.81266538255
21
4.75062474427
0
LINE
5
13F
100
AcDbEntity
8
engrave_old
6
ByLayer
62
256
370
-1
100
AcDbLine
10
3.81266538255
20
4.75062474427
11
3.81184816584
21
4.75049562306
0
LINE
5
140
100
AcDbEntity
8
engrave_old
6
ByLayer
62
256
370
-1
100
AcDbLine
10
3.81184816584
20
4.75049562306
11
3.81103868341
21
4.75034380956
0
LINE
5
141
100
AcDbEntity
8
engrave_old
6
ByLayer
62
256
370
-1
100
AcDbLine
10
3.81103868341
20
4.75034380956
11
3.81023739185
21
4.75016954565
0
LINE
5
142
100
AcDbEntity
8
engrave_old
6
ByLayer
62
256
370
-1
100
AcDbLine
10
3.81023739185
20
4.75016954565
11
3.80944474773
21
4.74997307323
0
LINE
5
143
100
AcDbEntity
8
engrave_old
6
ByLayer
62
256
370
-1
100
AcDbLine
10
3.82431659352
20
4.7499969401
11
3.82352228863
21
4.7501892606
0
LINE
5
144
100
AcDbEntity
8
engrave_old
6
ByLayer
62
256
370
-1
100
AcDbLine
10
3.82352228863
20
4.7501892606
11
3.8227183184
21
4.75035956009
0
LINE
5
145
100
AcDbEntity
8
engrave_old
6
ByLayer
62
256
370
-1
100
AcDbLine
10
3.8227183184
20
4.75035956009
11
3.82190505906
21
4.75050767703
0
LINE
5
146
100
AcDbEntity
8
engrave_old
6
ByLayer
62
256
370
-1
100
AcDbLine
10
3.82190505906
20
4.75050767703
11
3.82108288683
21
4.75063344992
0
LINE
5
147
100
AcDbEntity
8
engrave_old
6
ByLayer
62
256
370
-1
100
AcDbLine
10
3.82108288683
20
4.75063344992
11
3.82025217792
21
4.75073671721
0
LINE
5
148
100
AcDbEntity
8
engrave_old
6
ByLayer
62
256
370
-1
100
AcDbLine
10
3.82025217792
20
4.75073671721
11
3.81941330857
21
4.75081731739
0
LINE
5
149
100
AcDbEntity
8
engrave_old
6
ByLayer
62
256
370
-1
100
AcDbLine
10
3.81941330857
20
4.75081731739
11
3.81856665498
21
4.75087508894
0
LINE
5
14A
100
AcDbEntity
8
engrave_old
6
ByLayer
62
256
370
-1
100
AcDbLine
10
3.81856665498
20
4.75087508894
11
3.81771259338
21
4.75090987031
0
LINE
5
14B
100
AcDbEntity
8
engrave_old
6
ByLayer
62
256
370
-1
100
AcDbLine
10
3.81771259338
20
4.75090987031
11
3.8168515
21
4.7509215
0
LINE
5
14C
100
AcDbEntity
8
engrave_old
6
ByLayer
62
256
370
-1
100
AcDbLine
10
3.8697275
20
3.8923445
11
3.8736825
21
3.8035445
0
LINE
5
14D
100
AcDbEntity
8
engrave_old
6
ByLayer
62
256
370
-1
100
AcDbLine
10
3.8015365
20
4.5543835
11
3.7873085
21
4.6421275
0
LINE
5
14E
100
AcDbEntity
8
engrave_old
6
ByLayer
62
256
370
-1
100
AcDbLine
10
3.5392775
20
4.3325845
11
3.4551135
21
4.3611805
0
LINE
5
14F
100
AcDbEntity
8
engrave_old
6
ByLayer
62
256
370
-1
100
AcDbLine
10
3.5974355
20
4.0136225
11
3.5287795
21
3.9571625
0
LINE
5
150
100
AcDbEntity
8
engrave_old
6
ByLayer
62
256
370
-1
100
AcDbLine
10
3.8030705
20
3.75699738889
11
3.8030705
21
3.7681085
0
LINE
5
151
100
AcDbEntity
8
engrave_old
6
ByLayer
62
256
370
-1
100
AcDbLine
10
3.8030705
20
3.7681085
11
3.84751494444
21
3.7681085
0
LINE
5
152
100
AcDbEntity
8
engrave_old
6
ByLayer
62
256
370
-1
100
AcDbLine
10
3.84751494444
20
3.7681085
11
3.82529272222
21
3.6681085
0
LINE
5
153
100
AcDbEntity
8
engrave_old
6
ByLayer
62
256
370
-1
100
AcDbLine
10
3.92529272222
20
3.7681085
11
3.88084827778
21
3.7681085
0
LINE
5
154
100
AcDbEntity
8
engrave_old
6
ByLayer
62
256
370
-1
100
AcDbLine
10
3.88084827778
20
3.7681085
11
3.88084827778
21
3.72366405556
0
LINE
5
155
100
AcDbEntity
8
engrave_old
6
ByLayer
62
256
370
-1
100
AcDbLine
10
3.88084827778
20
3.72366405556
11
3.9030705
21
3.72366405556
0
ARC
5
156
100
AcDbEntity
8
engrave_old
6
ByLayer
62
256
370
-1
100
AcDbCircle
10
3.9030705166
20
3.70144184994
40
0.0222222056206
100
AcDbArc
50
359.999957196
51
90.0000428043
0
LINE
5
157
100
AcDbEntity
8
engrave_old
6
ByLayer
62
256
370
-1
100
AcDbLine
10
3.92529272222
20
3.70144183333
11
3.92529272222
21
3.69033072222
0
ARC
5
158
100
AcDbEntity
8
engrave_old
6
ByLayer
62
256
370
-1
100
AcDbCircle
10
3.9030705166
20
3.69033070562
40
0.0222222056206
100
AcDbArc
50
269.999957196
51
4.28042869768e-05
0
LINE
5
159
100
AcDbEntity
8
engrave_old
6
ByLayer
62
256
370
-1
100
AcDbLine
10
3.9030705
20
3.6681085
11
3.88084827778
21
3.6681085
0
LINE
5
15A
100
AcDbEntity
8
engrave_old
6
ByLayer
62
256
370
-1
100
AcDbLine
10
3.7130705
20
4.7581085
11
3.73529272222
21
4.7581085
0
ARC
5
15B
100
AcDbEntity
8
engrave_old
6
ByLayer
62
256
370
-1
100
AcDbCircle
10
3.73529272222
20
4.73588627778
40
0.0222222222222
100
AcDbArc
50
270
51
90
0
LINE
5
15C
100
AcDbEntity
8
engrave_old
6
ByLayer
62
256
370
-1
100
AcDbLine
10
3.72418161111
20
4.71366405556
11
3.73529272222
21
4.71366405556
0
ARC
5
15D
100
AcDbEntity
8
engrave_old
6
ByLayer
62
256
370
-1
100
AcDbCircle
10
3.73529273882
20
4.69144184994
40
0.0222222056206
100
AcDbArc
50
359.999957196
51
90.0000428043
0
LINE
5
15E
100
AcDbEntity
8
engrave_old
6
ByLayer
62
256
370
-1
100
AcDbLine
10
3.75751494444
20
4.69144183333
11
3.75751494444
21
4.68033072222
0
ARC
5
15F
100
AcDbEntity
8
engrave_old
6
ByLayer
62
256
370
-1
100
AcDbCircle
10
3.73529273882
20
4.68033070562
40
0.0222222056206
100
AcDbArc
50
269.999957196
51
4.28042869768e-05
0
LINE
5
160
100
AcDbEntity
8
engrave_old
6
ByLayer
62
256
370
-1
100
AcDbLine
10
3.73529272222
20
4.6581085
11
3.7130705
21
4.6581085
0
ARC
5
161
100
AcDbEntity
8
engrave_old
6
ByLayer
62
256
370
-1
100
AcDbCircle
10
3.8130705
20
4.74421961111
40
0.0138888888889
100
AcDbArc
50
36.8698976458
51
143.130102354
0
ARC
5
162
100
AcDbEntity
8
engrave_old
6
ByLayer
62
256
370
-1
100
AcDbCircle
10
3.88529272222
20
4.7081085
40
0.0944444444444
100
AcDbArc
50
151.927513064
51
208.072486936
0
ARC
5
163
100
AcDbEntity
8
engrave_old
6
ByLayer
62
256
370
-1
100
AcDbCircle
10
3.8130705
20
4.67199738889
40
0.0138888888889
100
AcDbArc
50
216.869897646
51
323.130102354
0
ARC
5
164
100
AcDbEntity
8
engrave_old
6
ByLayer
62
256
370
-1
100
AcDbCircle
10
3.74084827778
20
4.7081085
40
0.0944444444444
100
AcDbArc
50
331.927513064
51
28.0724869359
0
LINE
5
165
100
AcDbEntity
8
engrave_old
6
ByLayer
62
256
370
-1
100
AcDbLine
10
3.30529272222
20
4.4381085
11
3.2830705
21
4.36033072222
0
LINE
5
166
100
AcDbEntity
8
engrave_old
6
ByLayer
62
256
370
-1
100
AcDbLine
10
3.2830705
20
4.36033072222
11
3.33862605556
21
4.36033072222
0
LINE
5
167
100
AcDbEntity
8
engrave_old
6
ByLayer
62
256
370
-1
100
AcDbLine
10
3.32195938889
20
4.38255294444
11
3.32195938889
21
4.3381085
0
ARC
5
168
100
AcDbEntity
8
engrave_old
6
ByLayer
62
256
370
-1
100
AcDbCircle
10
3.39418161111
20
4.42421961111
40
0.0138888888889
100
AcDbArc
50
36.8698976458
51
143.130102354
0
ARC
5
169
100
AcDbEntity
8
engrave_old
6
ByLayer
62
256
370
-1
100
AcDbCircle
10
3.46640383333
20
4.3881085
40
0.0944444444444
100
AcDbArc
50
151.927513064
51
208.072486936
0
ARC
5
16A
100
AcDbEntity
8
engrave_old
6
ByLayer
62
256
370
-1
100
AcDbCircle
10
3.39418161111
20
4.35199738889
40
0.0138888888889
100
AcDbArc
50
216.869897646
51
323.130102354
0
ARC
5
16B
100
AcDbEntity
8
engrave_old
6
ByLayer
62
256
370
-1
100
AcDbCircle
10
3.32195938889
20
4.3881085
40
0.0944444444444
100
AcDbArc
50
331.927513064
51
28.0724869359
0
LINE
5
16C
100
AcDbEntity
8
engrave_old
6
ByLayer
62
256
370
-1
100
AcDbLine
10
3.41751494444
20
3.9681085
11
3.3730705
21
3.9681085
0
LINE
5
16D
100
AcDbEntity
8
engrave_old
6
ByLayer
62
256
370
-1
100
AcDbLine
10
3.3730705
20
3.9681085
11
3.3730705
21
3.92366405556
0
LINE
5
16E
100
AcDbEntity
8
engrave_old
6
ByLayer
62
256
370
-1
100
AcDbLine
10
3.3730705
20
3.92366405556
11
3.39529272222
21
3.92366405556
0
ARC
5
16F
100
AcDbEntity
8
engrave_old
6
ByLayer
62
256
370
-1
100
AcDbCircle
10
3.39529273882
20
3.90144184994
40
0.0222222056206
100
AcDbArc
50
359.999957196
51
90.0000428043
0
LINE
5
170
100
AcDbEntity
8
engrave_old
6
ByLayer
62
256
370
-1
100
AcDbLine
10
3.41751494444
20
3.90144183333
11
3.41751494444
21
3.89033072222
0
ARC
5
171
100
AcDbEntity
8
engrave_old
6
ByLayer
62
256
370
-1
100
AcDbCircle
10
3.39529273882
20
3.89033070562
40
0.0222222056206
100
AcDbArc
50
269.999957196
51
4.28042869768e-05
0
LINE
5
172
100
AcDbEntity
8
engrave_old
6
ByLayer
62
256
370
-1
100
AcDbLine
10
3.39529272222
20
3.8681085
11
3.3730705
21
3.8681085
0
ARC
5
173
100
AcDbEntity
8
engrave_old
6
ByLayer
62
256
370
-1
100
AcDbCircle
10
3.4730705
20
3.95421961111
40
0.0138888888889
100
AcDbArc
50
36.8698976458
51
143.130102354
0
ARC
5
174
100
AcDbEntity
8
engrave_old
6
ByLayer
62
256
370
-1
100
AcDbCircle
10
3.54529272222
20
3.9181085
40
0.0944444444444
100
AcDbArc
50
151.927513064
51
208.072486936
0
ARC
5
175
100
AcDbEntity
8
engrave_old
6
ByLayer
62
256
370
-1
100
AcDbCircle
10
3.4730705
20
3.88199738889
40
0.0138888888889
100
AcDbArc
50
216.869897646
51
323.130102354
0
ARC
5
176
100
AcDbEntity
8
engrave_old
6
ByLayer
62
256
370
-1
100
AcDbCircle
10
3.40084827778
20
3.9181085
40
0.0944444444444
100
AcDbArc
50
331.927513064
51
28.0724869359
0
ARC
5
177
100
AcDbEntity
8
engrave
6
ByLayer
62
256
370
-1
100
AcDbCircle
10
3.85811821139
20
4.23923118829
40
0.494312507726
100
AcDbArc
50
62.8053856544
51
284.635438346
0
LINE
5
178
100
AcDbEntity
8
engrave
6
ByLayer
62
256
370
-1
100
AcDbLine
10
3.98301509164
20
3.76095760069
11
3.93954126796
21
3.77144695981
0
LINE
5
179
100
AcDbEntity
8
engrave
6
ByLayer
62
256
370
-1
100
AcDbLine
10
3.98301509164
20
3.76095760069
11
3.94853931013
21
3.73247215722
0
LINE
5
17A
100
AcDbEntity
8
engrave
6
ByLayer
62
256
370
-1
100
AcDbLine
10
3.93954126796
20
3.77144695981
11
3.91780435612
21
3.77669163937
0
LINE
5
17B
100
AcDbEntity
8
engrave
6
ByLayer
62
256
370
-1
100
AcDbLine
10
3.94853931013
20
3.73247215722
11
3.93130141938
21
3.71822943548
0
LINE
5
17C
100
AcDbEntity
8
engrave
6
ByLayer
62
256
370
-1
100
AcDbLine
10
4.07488582063
20
4.66111287618
11
4.09316639351
21
4.69669124959
0
LINE
5
17D
100
AcDbEntity
8
scratch
6
ByLayer
62
256
370
-1
100
AcDbLine
10
9.27866
20
2.31811
11
9.27866
21
1.81811
0
LINE
5
17E
100
AcDbEntity
8
vector
6
ByLayer
62
256
370
-1
100
AcDbLine
10
7.113069
20
0.95
11
7.113069
21
1.45
0
LINE
5
17F
100
AcDbEntity
8
vector
6
ByLayer
62
256
370
-1
100
AcDbLine
10
7.113069
20
1.45
11
7.231179
21
1.45
0
LINE
5
180
100
AcDbEntity
8
vector
6
ByLayer
62
256
370
-1
100
AcDbLine
10
7.231179
20
1.45
11
7.231179
21
1.7
0
LINE
5
181
100
AcDbEntity
8
vector
6
ByLayer
62
256
370
-1
100
AcDbLine
10
7.231179
20
1.7
11
7.675156
21
1.7
0
LINE
5
182
100
AcDbEntity
8
vector
6
ByLayer
62
256
370
-1
100
AcDbLine
10
7.675156
20
1.7
11
7.675156
21
1.81811
0
LINE
5
183
100
AcDbEntity
8
vector
6
ByLayer
62
256
370
-1
100
AcDbLine
10
7.675156
20
1.81811
11
8.425156
21
1.81811
0
LINE
5
184
100
AcDbEntity
8
vector
6
ByLayer
62
256
370
-1
100
AcDbLine
10
8.425156
20
1.81811
11
8.425156
21
1.7
0
LINE
5
185
100
AcDbEntity
8
vector
6
ByLayer
62
256
370
-1
100
AcDbLine
10
8.425156
20
1.7
11
8.90366
21
1.7
0
LINE
5
186
100
AcDbEntity
8
vector
6
ByLayer
62
256
370
-1
100
AcDbLine
10
8.90366
20
1.7
11
8.90366
21
1.81811
0
LINE
5
187
100
AcDbEntity
8
vector
6
ByLayer
62
256
370
-1
100
AcDbLine
10
8.90366
20
1.81811
11
9.65366
21
1.81811
0
LINE
5
188
100
AcDbEntity
8
vector
6
ByLayer
62
256
370
-1
100
AcDbLine
10
9.65366
20
1.81811
11
9.65366
21
1.7
0
LINE
5
189
100
AcDbEntity
8
vector
6
ByLayer
62
256
370
-1
100
AcDbLine
10
9.65366
20
1.7
11
10.132164
21
1.7
0
LINE
5
18A
100
AcDbEntity
8
vector
6
ByLayer
62
256
370
-1
100
AcDbLine
10
10.132164
20
1.7
11
10.132164
21
1.81811
0
LINE
5
18B
100
AcDbEntity
8
vector
6
ByLayer
62
256
370
-1
100
AcDbLine
10
10.132164
20
1.81811
11
10.882164
21
1.81811
0
LINE
5
18C
100
AcDbEntity
8
vector
6
ByLayer
62
256
370
-1
100
AcDbLine
10
10.882164
20
1.81811
11
10.882164
21
1.7
0
LINE
5
18D
100
AcDbEntity
8
vector
6
ByLayer
62
256
370
-1
100
AcDbLine
10
10.882164
20
1.7
11
11.32614
21
1.7
0
LINE
5
18E
100
AcDbEntity
8
vector
6
ByLayer
62
256
370
-1
100
AcDbLine
10
11.32614
20
1.7
11
11.32614
21
1.45
0
LINE
5
18F
100
AcDbEntity
8
vector
6
ByLayer
62
256
370
-1
100
AcDbLine
10
11.32614
20
1.45
11
11.44425
21
1.45
0
LINE
5
190
100
AcDbEntity
8
vector
6
ByLayer
62
256
370
-1
100
AcDbLine
10
11.44425
20
1.45
11
11.44425
21
0.95
0
LINE
5
191
100
AcDbEntity
8
vector
6
ByLayer
62
256
370
-1
100
AcDbLine
10
11.44425
20
0.95
11
11.32614
21
0.95
0
LINE
5
192
100
AcDbEntity
8
vector
6
ByLayer
62
256
370
-1
100
AcDbLine
10
11.32614
20
0.95
11
11.32614
21
0.7
0
LINE
5
193
100
AcDbEntity
8
vector
6
ByLayer
62
256
370
-1
100
AcDbLine
10
11.32614
20
0.7
11
10.882164
21
0.7
0
LINE
5
194
100
AcDbEntity
8
vector
6
ByLayer
62
256
370
-1
100
AcDbLine
10
10.882164
20
0.7
11
10.882164
21
0.58189
0
LINE
5
195
100
AcDbEntity
8
vector
6
ByLayer
62
256
370
-1
100
AcDbLine
10
10.882164
20
0.58189
11
10.132164
21
0.58189
0
LINE
5
196
100
AcDbEntity
8
vector
6
ByLayer
62
256
370
-1
100
AcDbLine
10
10.132164
20
0.58189
11
10.132164
21
0.7
0
LINE
5
197
100
AcDbEntity
8
vector
6
ByLayer
62
256
370
-1
100
AcDbLine
10
10.132164
20
0.7
11
9.65366
21
0.7
0
LINE
5
198
100
AcDbEntity
8
vector
6
ByLayer
62
256
370
-1
100
AcDbLine
10
9.65366
20
0.7
11
9.65366
21
0.58189
0
LINE
5
199
100
AcDbEntity
8
vector
6
ByLayer
62
256
370
-1
100
AcDbLine
10
9.65366
20
0.58189
11
8.90366
21
0.58189
0
LINE
5
19A
100
AcDbEntity
8
vector
6
ByLayer
62
256
370
-1
100
AcDbLine
10
8.90366
20
0.58189
11
8.90366
21
0.7
0
LINE
5
19B
100
AcDbEntity
8
vector
6
ByLayer
62
256
370
-1
100
AcDbLine
10
8.90366
20
0.7
11
8.425156
21
0.7
0
LINE
5
19C
100
AcDbEntity
8
vector
6
ByLayer
62
256
370
-1
100
AcDbLine
10
8.425156
20
0.7
11
8.425156
21
0.58189
0
LINE
5
19D
100
AcDbEntity
8
vector
6
ByLayer
62
256
370
-1
100
AcDbLine
10
8.425156
20
0.58189
11
7.675156
21
0.58189
0
LINE
5
19E
100
AcDbEntity
8
vector
6
ByLayer
62
256
370
-1
100
AcDbLine
10
7.675156
20
0.58189
11
7.675156
21
0.7
0
LINE
5
19F
100
AcDbEntity
8
vector
6
ByLayer
62
256
370
-1
100
AcDbLine
10
7.675156
20
0.7
11
7.231179
21
0.7
0
LINE
5
1A0
100
AcDbEntity
8
vector
6
ByLayer
62
256
370
-1
100
AcDbLine
10
7.231179
20
0.7
11
7.231179
21
0.95
0
LINE
5
1A1
100
AcDbEntity
8
vector
6
ByLayer
62
256
370
-1
100
AcDbLine
10
7.231179
20
0.95
11
7.113069
21
0.95
0
LINE
5
1A2
100
AcDbEntity
8
scratch
6
ByLayer
62
256
370
-1
100
AcDbLine
10
11.5442519232
20
4.06122067214
11
12.0442519232
21
4.06122067214
0
LINE
5
1A3
100
AcDbEntity
8
vector
6
ByLayer
62
256
370
-1
100
AcDbLine
10
13.04425
20
3.4146865
11
13.162361
21
3.4146865
0
LINE
5
1A4
100
AcDbEntity
8
vector
6
ByLayer
62
256
370
-1
100
AcDbLine
10
13.162361
20
3.4146865
11
13.162361
21
2.6646475
0
LINE
5
1A5
100
AcDbEntity
8
vector
6
ByLayer
62
256
370
-1
100
AcDbLine
10
13.162361
20
2.6646475
11
13.04425
21
2.6646475
0
LINE
5
1A6
100
AcDbEntity
8
vector
6
ByLayer
62
256
370
-1
100
AcDbLine
10
13.04425
20
2.6646475
11
13.04425
21
2.4181115
0
LINE
5
1A7
100
AcDbEntity
8
vector
6
ByLayer
62
256
370
-1
100
AcDbLine
10
13.04425
20
2.4181115
11
12.79425
21
2.4181115
0
LINE
5
1A8
100
AcDbEntity
8
vector
6
ByLayer
62
256
370
-1
100
AcDbLine
10
12.79425
20
2.4181115
11
12.79425
21
2.5362215
0
LINE
5
1A9
100
AcDbEntity
8
vector
6
ByLayer
62
256
370
-1
100
AcDbLine
10
12.79425
20
2.5362215
11
12.294289
21
2.5362215
0
LINE
5
1AA
100
AcDbEntity
8
vector
6
ByLayer
62
256
370
-1
100
AcDbLine
10
12.294289
20
2.5362215
11
12.294289
21
2.4181115
0
LINE
5
1AB
100
AcDbEntity
8
vector
6
ByLayer
62
256
370
-1
100
AcDbLine
10
12.294289
20
2.4181115
11
12.044251
21
2.4181115
0
LINE
5
1AC
100
AcDbEntity
8
vector
6
ByLayer
62
256
370
-1
100
AcDbLine
10
12.044251
20
2.4181115
11
12.044251
21
2.6646475
0
LINE
5
1AD
100
AcDbEntity
8
vector
6
ByLayer
62
256
370
-1
100
AcDbLine
10
12.044251
20
2.6646475
11
11.926141
21
2.6646475
0
LINE
5
1AE
100
AcDbEntity
8
vector
6
ByLayer
62
256
370
-1
100
AcDbLine
10
11.926141
20
2.6646475
11
11.926141
21
3.4146865
0
LINE
5
1AF
100
AcDbEntity
8
vector
6
ByLayer
62
256
370
-1
100
AcDbLine
10
11.926141
20
3.4146865
11
12.044251
21
3.4146865
0
LINE
5
1B0
100
AcDbEntity
8
vector
6
ByLayer
62
256
370
-1
100
AcDbLine
10
13.1623628464
20
5.45779384427
11
13.1623628464
21
4.70775484427
0
LINE
5
1B1
100
AcDbEntity
8
vector
6
ByLayer
62
256
370
-1
100
AcDbLine
10
13.1623628464
20
4.70775484427
11
13.0442518464
21
4.70775484427
0
LINE
5
1B2
100
AcDbEntity
8
vector
6
ByLayer
62
256
370
-1
100
AcDbLine
10
12.0442528464
20
4.70775484427
11
11.9261428464
21
4.70775484427
0
LINE
5
1B3
100
AcDbEntity
8
vector
6
ByLayer
62
256
370
-1
100
AcDbLine
10
11.9261428464
20
4.70775484427
11
11.9261428464
21
5.45779384427
0
LINE
5
1B4
100
AcDbEntity
8
vector
6
ByLayer
62
256
370
-1
100
AcDbLine
10
11.9261428464
20
5.45779384427
11
12.0442528464
21
5.45779384427
0
LINE
5
1B5
100
AcDbEntity
8
vector
6
ByLayer
62
256
370
-1
100
AcDbLine
10
12.0442528464
20
5.45779384427
11
12.0442528464
21
5.70432884427
0
LINE
5
1B6
100
AcDbEntity
8
vector
6
ByLayer
62
256
370
-1
100
AcDbLine
10
12.0442528464
20
5.70432884427
11
12.2942908464
21
5.70432884427
0
LINE
5
1B7
100
AcDbEntity
8
vector
6
ByLayer
62
256
370
-1
100
AcDbLine
10
12.2942908464
20
5.70432884427
11
12.2942908464
21
5.58621884427
0
LINE
5
1B8
100
AcDbEntity
8
vector
6
ByLayer
62
256
370
-1
100
AcDbLine
10
12.2942908464
20
5.58621884427
11
12.7942518464
21
5.58621884427
0
LINE
5
1B9
100
AcDbEntity
8
vector
6
ByLayer
62
256
370
-1
100
AcDbLine
10
12.7942518464
20
5.58621884427
11
12.7942518464
21
5.70432884427
0
LINE
5
1BA
100
AcDbEntity
8
vector
6
ByLayer
62
256
370
-1
100
AcDbLine
10
12.7942518464
20
5.70432884427
11
13.0442518464
21
5.70432884427
0
LINE
5
1BB
100
AcDbEntity
8
vector
6
ByLayer
62
256
370
-1
100
AcDbLine
10
13.0442518464
20
5.70432884427
11
13.0442518464
21
5.45779384427
0
LINE
5
1BC
100
AcDbEntity
8
vector
6
ByLayer
62
256
370
-1
100
AcDbLine
10
13.0442518464
20
5.45779384427
11
13.1623628464
21
5.45779384427
0
LINE
5
1BD
100
AcDbEntity
8
vector
6
ByLayer
62
256
370
-1
100
AcDbLine
10
12.0442528464
20
4.70775484427
11
12.044251
21
3.4146865
0
LINE
5
1BE
100
AcDbEntity
8
vector
6
ByLayer
62
256
370
-1
100
AcDbLine
10
13.0442518464
20
4.70775484427
11
13.04425
21
3.4146865
0
ENDSEC
0
SECTION
2
OBJECTS
0
DICTIONARY
5
C
330
0
100
AcDbDictionary
281
1
3
ACAD_GROUP
350
D
0
DICTIONARY
5
D
330
C
100
AcDbDictionary
281
1
0
ENDSEC
0
EOF
